<svg id="nextcloud-logo" xmlns="http://www.w3.org/2000/svg" viewBox="0 0 142 100" width="142" height="100">
  <g id="logo" stroke="currentColor" fill="none" stroke-width="11" transform="scale(1.109)"><circle cx="20" cy="32" r="13"/><circle cx="64" cy="32" r="23"/><circle cx="108" cy="32" r="13"/></g>
  <g id="Nextcloud" fill="currentColor" transform="translate(-3.4, -3.4) scale(1.17)"><path d="M15.4,67.4c-0.4,0-0.5,0.2-0.5,0.6v14.6c0,0.4,0.2,0.5,0.5,0.5h0.4c0.4,0,0.5-0.2,0.5-0.5V70.4   l7.9,12.3c0,0.1,0.1,0.1,0.1,0.1c0,0,0,0,0,0c0,0,0.1,0,0.1,0.1c0,0,0,0,0.1,0c0,0,0,0,0,0c0.1,0,0.1,0,0.2,0h0.4   c0.4,0,0.5-0.2,0.5-0.5V68c0-0.4-0.2-0.6-0.5-0.6h-0.4c-0.4,0-0.6,0.2-0.6,0.6v12.1l-7.9-12.3c0,0-0.1-0.1-0.1-0.1   c-0.1-0.1-0.2-0.2-0.4-0.2L15.4,67.4z M110.8,67.6c-0.4,0-0.2,0.2-0.2,0.6v5c0,0.5,0,0.9,0,0.9h0c0,0-1-2.2-3.6-2.2   c-2.9,0-5,2.3-4.9,5.7c0,3.4,1.9,5.8,4.8,5.8c2.9,0,3.8-2.3,3.8-2.3h0.1c0,0-0.1,0.3-0.1,0.7v0.9c0,0.4,0.2,0.5,0.6,0.5h0.4   c0.4,0,0.5-0.2,0.5-0.6V68.2c0-0.4-0.6-0.6-0.9-0.6H110.8z M71.8,67.7c-0.4,0-0.1,0.2-0.1,0.6v12.3c0,2.4,1.6,2.7,2.5,2.7   c0.4,0,0.6-0.2,0.6-0.6v-0.4c0-0.4-0.2-0.5-0.5-0.5c-0.5-0.1-1.2-0.2-1.2-1.6v-12c0-0.4-0.6-0.6-0.9-0.6L71.8,67.7z M53.8,69   c-0.4,0-0.6,0.2-0.6,0.6v2.6v1.3v5.7c0,2.6,1.5,4.1,3.9,4.1c0.5,0,0.6-0.1,0.6-0.5v-0.3c0-0.4-0.1-0.5-0.6-0.6   c-0.9-0.1-2.4-0.4-2.4-2.9v-5.5h2.3c0.4,0,0.6-0.1,0.6-0.5v-0.2c0-0.4-0.2-0.6-0.6-0.6h-2.3v-2.6c0-0.4-0.1-0.6-0.5-0.6L53.8,69z    M33.8,71.8c-3,0-5.4,2.2-5.5,5.8c0,3.4,2.5,5.8,5.8,5.8c1.8,0,3.1-0.8,3.7-1.2c0.3-0.2,0.3-0.5,0.2-0.7l-0.2-0.2   c-0.2-0.3-0.4-0.4-0.7-0.2c-0.5,0.4-1.5,1-2.9,1c-2.3,0-4.2-1.6-4.3-4.4h8c0.3,0,0.6-0.3,0.6-0.6C38.4,73.9,36.8,71.8,33.8,71.8z    M65,71.8c-3.3,0-5.8,2.4-5.8,5.8c0,3.4,2.5,5.8,5.8,5.8c2,0,3.4-1,3.9-1.4c0.3-0.3,0.3-0.5,0.1-0.8L68.8,81   c-0.2-0.3-0.4-0.4-0.7-0.2C67.6,81.3,66.6,82,65,82c-2.4,0-4.3-1.8-4.3-4.4c0-2.7,1.9-4.5,4.3-4.5c1.3,0,2.3,0.7,2.8,1   c0.3,0.2,0.6,0.2,0.8-0.1l0.2-0.3c0.3-0.3,0.2-0.6-0.1-0.8C68.1,72.6,66.9,71.8,65,71.8L65,71.8z M81.9,71.8   c-3.2,0-5.8,2.5-5.8,5.7c0,3.3,2.6,5.8,5.8,5.8c3.2,0,5.8-2.5,5.8-5.8C87.8,74.3,85.1,71.8,81.9,71.8z M49.5,72   c-0.1,0-0.2,0.1-0.4,0.2l-2,2.4l-1.5,1.8l-2.3-2.7L42,72.2c-0.1-0.1-0.2-0.2-0.4-0.2c-0.1,0-0.3,0-0.4,0.2l-0.3,0.3   c-0.3,0.2-0.3,0.5,0,0.7l2,2.4l1.7,2l-2.5,2.9c0,0,0,0,0,0L40.9,82c-0.2,0.3-0.2,0.6,0.1,0.8l0.3,0.3c0.3,0.2,0.5,0.2,0.7-0.1   l2-2.4l1.5-1.8l2.3,2.7c0,0,0,0,0,0l1.2,1.5c0.2,0.3,0.5,0.3,0.8,0.1l0.3-0.3c0.3-0.2,0.3-0.5,0-0.7l-2-2.4l-1.7-2l2.5-2.9   c0,0,0,0,0,0l1.2-1.5c0.2-0.3,0.2-0.6-0.1-0.8l-0.3-0.3C49.7,72,49.6,71.9,49.5,72L49.5,72z M90.7,72c-0.4,0-0.5,0.2-0.5,0.6v6.5   c0,2.9,2.1,4.3,4.7,4.3c2.6,0,4.7-1.4,4.7-4.3v-6.5c0.1-0.4-0.1-0.6-0.5-0.6h-0.4c-0.4,0-0.6,0.2-0.6,0.6v6.1   c0,1.7-1.1,3.3-3.3,3.3c-2.1,0-3.3-1.6-3.3-3.3v-6.1c0-0.4-0.2-0.6-0.6-0.6L90.7,72z M33.8,73c1.6,0,3,1.2,3.1,3.5h-6.9   C30.3,74.3,31.9,73,33.8,73z M81.9,73.1c2.4,0,4.3,1.9,4.3,4.4c0,2.6-1.9,4.5-4.3,4.5c-2.4,0-4.3-2-4.3-4.5   C77.6,75.1,79.6,73.1,81.9,73.1z M107.1,73.1c2.4,0,3.5,2.2,3.5,4.4c0,3.2-1.7,4.5-3.6,4.5c-2.1,0-3.5-1.8-3.5-4.5   C103.5,74.8,105.1,73.1,107.1,73.1z"/></g>
</svg>